<svg width="101" height="100" fill="none" xmlns="http://www.w3.org/2000/svg"><path d="M50.4 100c27.614 0 50-22.386 50-50S78.014 0 50.4 0 .4 22.386.4 50s22.386 50 50 50z" fill="#B00000" fill-opacity=".15"/><path d="M36.3 23.887a29 29 0 11-9.947 8.686" stroke="#B00000" stroke-width="3" stroke-linecap="round" stroke-linejoin="round"/><path d="M34.877 24.166l1.945-4.204m-1.946 3.912l4.113 1.656" stroke="#B00000" stroke-width="2" stroke-linecap="round" stroke-linejoin="round"/><path d="M49.9 72.127c12.496 0 22.627-10.13 22.627-22.627 0-12.496-10.13-22.627-22.627-22.627-12.497 0-22.627 10.13-22.627 22.627 0 12.496 10.13 22.627 22.627 22.627z" stroke="#B00000" stroke-width="3"/><path d="M49.9 30.452a1.27 1.27 0 00-1.27 1.27v1.693a1.27 1.27 0 102.54 0v-1.693a1.27 1.27 0 00-1.27-1.27zm0 33.862a1.27 1.27 0 00-1.27 1.27v1.693a1.27 1.27 0 102.54 0v-1.693a1.27 1.27 0 00-1.27-1.27zM68.947 49.5a1.27 1.27 0 00-1.27-1.27h-1.693a1.27 1.27 0 100 2.54h1.694a1.27 1.27 0 001.27-1.27zm-33.862 0a1.27 1.27 0 00-1.27-1.27h-1.693a1.27 1.27 0 100 2.54h1.693a1.27 1.27 0 001.27-1.27z" fill="#B00000"/><path d="M43.3 49.633l4.681 4.55 9.719-9.447" stroke="#B00000" stroke-width="3" stroke-linecap="round" stroke-linejoin="round"/></svg>