<svg width="101" height="100" fill="none" xmlns="http://www.w3.org/2000/svg"><path d="M50.4 100c27.614 0 50-22.386 50-50S78.014 0 50.4 0 .4 22.386.4 50s22.386 50 50 50z" fill="#B00000" fill-opacity=".15"/><path d="M43.642 75.601a1.752 1.752 0 002.319-.946l1.424-3.44c1.732.236 3.489.233 5.22-.008l1.43 3.444a1.75 1.75 0 002.298.956l5.952-2.468c.44-.18.788-.53.967-.97a1.701 1.701 0 00-.012-1.326l-1.424-3.45a19.16 19.16 0 003.693-3.689l3.43 1.42a1.753 1.753 0 002.317-.945l2.471-5.96c.178-.43.18-.913.004-1.343a1.737 1.737 0 00-.954-.958L70.334 54.9l-39.777-.362-3.366 1.387a1.749 1.749 0 00-.922 2.285l2.462 5.971c.179.428.52.768.95.945.429.181.913.182 1.343.003l3.452-1.426a19.36 19.36 0 003.695 3.696l-1.416 3.421a1.72 1.72 0 00-.02 1.347c.178.44.525.788.963.97l5.943 2.463z" stroke="#B00000" stroke-width="3"/><path d="M69.472 55.247H33.849C27.857 55.247 23 50.39 23 44.398S27.857 33.55 33.849 33.55c.076 0 .143 0 .206.002l1.007.023.402-.923a12.747 12.747 0 0123.369 0l.383.878.958.022a9.44 9.44 0 018.478 5.75l.362.855.926.057a7.524 7.524 0 01-.468 15.034z" stroke="#B00000" stroke-width="3"/><path d="M49.996 65.547h.002c6-.024 11.372-3.723 13.535-9.32a1.2 1.2 0 10-2.242-.856 12.09 12.09 0 01-22.588 0 1.2 1.2 0 10-2.241.856 14.572 14.572 0 0013.534 9.32z" fill="#B00000" stroke="#B00000" stroke-width=".5"/></svg>