<svg width="101" height="100" fill="none" xmlns="http://www.w3.org/2000/svg"><path d="M50.4 100c27.614 0 50-22.386 50-50S78.014 0 50.4 0 .4 22.386.4 50s22.386 50 50 50z" fill="#B00000" fill-opacity=".15"/><path d="M75.493 62.54v1.468a3.72 3.72 0 01-3.721 3.72H27.12a3.72 3.72 0 01-3.721-3.72V36.72A3.721 3.721 0 0127.12 33h44.652a3.721 3.721 0 013.72 3.72v6.029" stroke="#B00000" stroke-width="3" stroke-linecap="round" stroke-linejoin="round"/><path d="M69.442 43.232v4.154m0 9.693v4.153M76.86 47.89l-3.446 1.949m-7.944 4.785l-3.446 1.948m0-8.68l3.447 1.948m7.944 4.786l3.446 1.949M30.797 57.73l7.806-7.805 5.733 5.732L56.31 43.682" stroke="#B00000" stroke-width="3" stroke-miterlimit="10" stroke-linecap="round" stroke-linejoin="round"/></svg>