<svg width="100" height="100" fill="none" xmlns="http://www.w3.org/2000/svg"><path d="M49.816 100c27.512 0 49.815-22.386 49.815-50S77.328 0 49.815 0C22.303 0 0 22.386 0 50s22.303 50 49.816 50z" fill="#B00000" fill-opacity=".15"/><path d="M26.49 45.85h-2.778a1.73 1.73 0 00-1.268.566 2.014 2.014 0 00-.525 1.367v7.757c0 .513.189 1.005.525 1.367a1.73 1.73 0 001.268.567h2.779M73.96 45.85h1.957c.476 0 .932.203 1.269.566.336.363.525.855.525 1.367v7.757c0 .513-.19 1.005-.525 1.367a1.73 1.73 0 01-1.269.567H73.14" stroke="#B00000" stroke-width="3.114" stroke-linecap="round"/><path d="M60.212 70.523h3.646a24.05 24.05 0 008.724-12.125 24.193 24.193 0 00-.092-14.968 24.044 24.044 0 00-8.873-12.016 23.81 23.81 0 00-14.219-4.41 23.82 23.82 0 00-14.058 4.902 24.058 24.058 0 00-8.455 12.317 24.192 24.192 0 00.422 14.962A24.036 24.036 0 0036.443 71" stroke="#B00000" stroke-width="3" stroke-linecap="round"/><path d="M57.37 72.825h-9.635a1.89 1.89 0 01-1.344-.573 1.981 1.981 0 01-.56-1.376v-.254c.002-.516.203-1.01.56-1.376.356-.364.84-.57 1.344-.573h9.635a1.89 1.89 0 011.345.573c.356.365.558.86.56 1.376v.254a1.98 1.98 0 01-.56 1.376 1.89 1.89 0 01-1.345.573z" stroke="#B00000" stroke-width="3" stroke-linecap="round"/><path d="M35.057 55.862h6.221v-1.508h-3.664v-.06l1.274-1.249c1.794-1.636 2.275-2.454 2.275-3.447 0-1.513-1.236-2.582-3.106-2.582-1.833 0-3.09 1.095-3.086 2.808h1.752c-.004-.835.524-1.347 1.32-1.347.768 0 1.339.478 1.339 1.245 0 .694-.426 1.172-1.219 1.934l-3.106 2.877v1.33zm7.239-1.534h4.189v1.534h1.764v-1.534h1.082V52.85H48.25v-5.714h-2.31l-3.643 5.74v1.453zm4.223-1.479h-2.365v-.068l2.296-3.635h.069v3.703zm9.398 1.803l1.12-1.12-1.985-1.982 1.986-1.982-1.12-1.13-1.987 1.987-1.99-1.986-1.116 1.13 1.981 1.98-1.981 1.982 1.116 1.121 1.99-1.986 1.986 1.986zm3.145 1.21h1.905l3.622-7.197v-1.53h-6.124v1.509h4.215v.06l-3.618 7.158z" fill="#B00000"/></svg>